<mxfile host="app.diagrams.net" agent="Mozilla/5.0 (Windows NT 10.0; Win64; x64) AppleWebKit/537.36 (KHTML, like Gecko) Chrome/130.0.0.0 Safari/537.36" version="24.8.3">
  <diagram name="Page-1" id="6-gjoGEpxw4ECkMXdpWF">
    <mxGraphModel dx="2079" dy="1802" grid="1" gridSize="10" guides="1" tooltips="1" connect="1" arrows="1" fold="1" page="1" pageScale="1" pageWidth="827" pageHeight="1169" math="0" shadow="0">
      <root>
        <mxCell id="0" />
        <mxCell id="1" parent="0" />
        <mxCell id="JoGAnePk4Ze11UbTm-mj-1" value="rk3588-evb4-lp4-v10-linux.dts" style="text;html=1;align=center;verticalAlign=middle;whiteSpace=wrap;rounded=0;" parent="1" vertex="1">
          <mxGeometry x="65" y="120" width="210" height="30" as="geometry" />
        </mxCell>
        <mxCell id="JoGAnePk4Ze11UbTm-mj-14" style="edgeStyle=orthogonalEdgeStyle;rounded=0;orthogonalLoop=1;jettySize=auto;html=1;exitX=0.5;exitY=1;exitDx=0;exitDy=0;entryX=0.5;entryY=0;entryDx=0;entryDy=0;" parent="1" source="JoGAnePk4Ze11UbTm-mj-2" target="JoGAnePk4Ze11UbTm-mj-1" edge="1">
          <mxGeometry relative="1" as="geometry" />
        </mxCell>
        <UserObject label="rk3588-evb4-lp4.dtsi" id="JoGAnePk4Ze11UbTm-mj-2">
          <mxCell style="text;whiteSpace=wrap;html=1;" parent="1" vertex="1">
            <mxGeometry x="5" y="50" width="120" height="30" as="geometry" />
          </mxCell>
        </UserObject>
        <mxCell id="JoGAnePk4Ze11UbTm-mj-15" style="edgeStyle=orthogonalEdgeStyle;rounded=0;orthogonalLoop=1;jettySize=auto;html=1;exitX=0.5;exitY=1;exitDx=0;exitDy=0;entryX=0.5;entryY=0;entryDx=0;entryDy=0;" parent="1" source="JoGAnePk4Ze11UbTm-mj-3" target="JoGAnePk4Ze11UbTm-mj-1" edge="1">
          <mxGeometry relative="1" as="geometry" />
        </mxCell>
        <UserObject label="&lt;font color=&quot;#ff0000&quot;&gt;rk3588-linux.dtsi&lt;/font&gt;" id="JoGAnePk4Ze11UbTm-mj-3">
          <mxCell style="text;whiteSpace=wrap;html=1;" parent="1" vertex="1">
            <mxGeometry x="235" y="50" width="100" height="30" as="geometry" />
          </mxCell>
        </UserObject>
        <mxCell id="JoGAnePk4Ze11UbTm-mj-10" style="edgeStyle=orthogonalEdgeStyle;rounded=0;orthogonalLoop=1;jettySize=auto;html=1;exitX=0.5;exitY=1;exitDx=0;exitDy=0;entryX=0.5;entryY=0;entryDx=0;entryDy=0;" parent="1" source="JoGAnePk4Ze11UbTm-mj-4" target="JoGAnePk4Ze11UbTm-mj-2" edge="1">
          <mxGeometry relative="1" as="geometry" />
        </mxCell>
        <UserObject label="&lt;font color=&quot;#ff0000&quot;&gt;rk3588.dtsi&lt;/font&gt;" id="JoGAnePk4Ze11UbTm-mj-4">
          <mxCell style="text;whiteSpace=wrap;html=1;" parent="1" vertex="1">
            <mxGeometry x="-70" y="-20" width="70" height="30" as="geometry" />
          </mxCell>
        </UserObject>
        <mxCell id="JoGAnePk4Ze11UbTm-mj-11" style="edgeStyle=orthogonalEdgeStyle;rounded=0;orthogonalLoop=1;jettySize=auto;html=1;exitX=0.5;exitY=1;exitDx=0;exitDy=0;entryX=0.5;entryY=0;entryDx=0;entryDy=0;" parent="1" source="JoGAnePk4Ze11UbTm-mj-5" target="JoGAnePk4Ze11UbTm-mj-2" edge="1">
          <mxGeometry relative="1" as="geometry" />
        </mxCell>
        <UserObject label="&lt;font color=&quot;#ff0000&quot;&gt;rk3588-evb.dtsi&lt;/font&gt;" id="JoGAnePk4Ze11UbTm-mj-5">
          <mxCell style="text;whiteSpace=wrap;html=1;" parent="1" vertex="1">
            <mxGeometry x="20" y="-20" width="90" height="30" as="geometry" />
          </mxCell>
        </UserObject>
        <mxCell id="JoGAnePk4Ze11UbTm-mj-16" style="edgeStyle=orthogonalEdgeStyle;rounded=0;orthogonalLoop=1;jettySize=auto;html=1;exitX=0.5;exitY=1;exitDx=0;exitDy=0;entryX=0.5;entryY=0;entryDx=0;entryDy=0;" parent="1" source="JoGAnePk4Ze11UbTm-mj-6" target="JoGAnePk4Ze11UbTm-mj-2" edge="1">
          <mxGeometry relative="1" as="geometry" />
        </mxCell>
        <UserObject label="rk3588-rk806-single.dtsi" id="JoGAnePk4Ze11UbTm-mj-6">
          <mxCell style="text;whiteSpace=wrap;html=1;" parent="1" vertex="1">
            <mxGeometry x="110" y="-20" width="140" height="30" as="geometry" />
          </mxCell>
        </UserObject>
        <mxCell id="JoGAnePk4Ze11UbTm-mj-9" style="edgeStyle=orthogonalEdgeStyle;rounded=0;orthogonalLoop=1;jettySize=auto;html=1;exitX=0.5;exitY=1;exitDx=0;exitDy=0;entryX=0.5;entryY=0;entryDx=0;entryDy=0;" parent="1" source="JoGAnePk4Ze11UbTm-mj-7" target="JoGAnePk4Ze11UbTm-mj-4" edge="1">
          <mxGeometry relative="1" as="geometry" />
        </mxCell>
        <UserObject label="&lt;font color=&quot;#ff0000&quot;&gt;rk3588s.dtsi&lt;/font&gt;" id="JoGAnePk4Ze11UbTm-mj-7">
          <mxCell style="text;whiteSpace=wrap;html=1;" parent="1" vertex="1">
            <mxGeometry x="-150" y="-90" width="80" height="30" as="geometry" />
          </mxCell>
        </UserObject>
        <mxCell id="JoGAnePk4Ze11UbTm-mj-19" style="edgeStyle=orthogonalEdgeStyle;rounded=0;orthogonalLoop=1;jettySize=auto;html=1;exitX=0.5;exitY=1;exitDx=0;exitDy=0;entryX=0.5;entryY=0;entryDx=0;entryDy=0;" parent="1" source="JoGAnePk4Ze11UbTm-mj-8" target="JoGAnePk4Ze11UbTm-mj-4" edge="1">
          <mxGeometry relative="1" as="geometry" />
        </mxCell>
        <UserObject label="rk3588-vccio3-pinctrl.dtsi" id="JoGAnePk4Ze11UbTm-mj-8">
          <mxCell style="text;whiteSpace=wrap;html=1;" parent="1" vertex="1">
            <mxGeometry x="-30" y="-90" width="140" height="30" as="geometry" />
          </mxCell>
        </UserObject>
        <mxCell id="JoGAnePk4Ze11UbTm-mj-18" style="edgeStyle=orthogonalEdgeStyle;rounded=0;orthogonalLoop=1;jettySize=auto;html=1;exitX=0.5;exitY=1;exitDx=0;exitDy=0;entryX=0.5;entryY=0;entryDx=0;entryDy=0;" parent="1" source="JoGAnePk4Ze11UbTm-mj-17" target="JoGAnePk4Ze11UbTm-mj-8" edge="1">
          <mxGeometry relative="1" as="geometry" />
        </mxCell>
        <UserObject label="rockchip-pinconf.dtsi" id="JoGAnePk4Ze11UbTm-mj-17">
          <mxCell style="text;whiteSpace=wrap;html=1;" parent="1" vertex="1">
            <mxGeometry x="-20" y="-140" width="120" height="30" as="geometry" />
          </mxCell>
        </UserObject>
        <mxCell id="JoGAnePk4Ze11UbTm-mj-22" value="&lt;font style=&quot;font-size: 10px;&quot;&gt;rk3588某个linux evb设备树结构，红色文件内包含display相关节点：&lt;/font&gt;" style="text;html=1;align=center;verticalAlign=middle;whiteSpace=wrap;rounded=0;" parent="1" vertex="1">
          <mxGeometry x="-165" y="-200" width="310" height="30" as="geometry" />
        </mxCell>
        <mxCell id="IQwuNEC89kdCFAj0Ew5a-8" value="" style="edgeStyle=orthogonalEdgeStyle;rounded=0;orthogonalLoop=1;jettySize=auto;html=1;" parent="1" source="IQwuNEC89kdCFAj0Ew5a-1" target="IQwuNEC89kdCFAj0Ew5a-7" edge="1">
          <mxGeometry relative="1" as="geometry" />
        </mxCell>
        <mxCell id="IQwuNEC89kdCFAj0Ew5a-1" value="&lt;font color=&quot;#ff3333&quot;&gt;bcm2711.dtsi&lt;/font&gt;" style="text;html=1;align=center;verticalAlign=middle;whiteSpace=wrap;rounded=0;" parent="1" vertex="1">
          <mxGeometry x="-65" y="300" width="100" height="30" as="geometry" />
        </mxCell>
        <mxCell id="IQwuNEC89kdCFAj0Ew5a-3" value="树莓派4b:" style="text;html=1;align=center;verticalAlign=middle;whiteSpace=wrap;rounded=0;" parent="1" vertex="1">
          <mxGeometry x="-180" y="280" width="60" height="30" as="geometry" />
        </mxCell>
        <mxCell id="IQwuNEC89kdCFAj0Ew5a-6" value="" style="edgeStyle=orthogonalEdgeStyle;rounded=0;orthogonalLoop=1;jettySize=auto;html=1;" parent="1" source="IQwuNEC89kdCFAj0Ew5a-4" target="IQwuNEC89kdCFAj0Ew5a-1" edge="1">
          <mxGeometry relative="1" as="geometry" />
        </mxCell>
        <mxCell id="IQwuNEC89kdCFAj0Ew5a-4" value="&lt;font color=&quot;#ff3333&quot;&gt;bcm283x.dtsi&lt;/font&gt;" style="text;html=1;align=center;verticalAlign=middle;whiteSpace=wrap;rounded=0;" parent="1" vertex="1">
          <mxGeometry x="-65" y="240" width="100" height="30" as="geometry" />
        </mxCell>
        <mxCell id="IQwuNEC89kdCFAj0Ew5a-7" value="&lt;font color=&quot;#ff3333&quot;&gt;bcm2711-rpi-4-b.dts&lt;/font&gt;" style="text;html=1;align=center;verticalAlign=middle;whiteSpace=wrap;rounded=0;" parent="1" vertex="1">
          <mxGeometry x="22.5" y="440" width="125" height="30" as="geometry" />
        </mxCell>
        <mxCell id="IQwuNEC89kdCFAj0Ew5a-9" value="&lt;div style=&quot;color: rgb(171, 178, 191); background-color: rgb(40, 44, 52); font-family: Consolas, &amp;quot;Courier New&amp;quot;, monospace; font-size: 11px; line-height: 19px; white-space: pre;&quot;&gt;&lt;div style=&quot;font-size: 11px;&quot;&gt;&amp;nbsp; &amp;nbsp; &amp;nbsp; &amp;nbsp; &lt;span style=&quot;color: rgb(229, 192, 123); font-size: 11px;&quot;&gt;vc4&lt;/span&gt;: &lt;span style=&quot;color: rgb(97, 175, 239); font-size: 11px;&quot;&gt;gpu&lt;/span&gt; {&lt;/div&gt;&lt;div style=&quot;font-size: 11px;&quot;&gt;&amp;nbsp; &amp;nbsp; &amp;nbsp; &amp;nbsp; &amp;nbsp; &amp;nbsp; &amp;nbsp; &amp;nbsp; compatible = &lt;span style=&quot;color: rgb(152, 195, 121); font-size: 11px;&quot;&gt;&quot;brcm,bcm2711-vc5&quot;&lt;/span&gt;;&lt;/div&gt;&lt;div style=&quot;font-size: 11px;&quot;&gt;&amp;nbsp; &amp;nbsp; &amp;nbsp; &amp;nbsp; &amp;nbsp; &amp;nbsp; &amp;nbsp; &amp;nbsp; status = &lt;span style=&quot;color: rgb(152, 195, 121); font-size: 11px;&quot;&gt;&quot;disabled&quot;&lt;/span&gt;;&lt;/div&gt;&lt;div style=&quot;font-size: 11px;&quot;&gt;&amp;nbsp; &amp;nbsp; &amp;nbsp; &amp;nbsp; };&lt;/div&gt;&lt;/div&gt;" style="text;whiteSpace=wrap;html=1;labelBackgroundColor=#CC99FF;fontSize=11;" parent="1" vertex="1">
          <mxGeometry x="-11.25" y="790" width="390" height="90" as="geometry" />
        </mxCell>
        <mxCell id="IQwuNEC89kdCFAj0Ew5a-14" style="edgeStyle=orthogonalEdgeStyle;rounded=0;orthogonalLoop=1;jettySize=auto;html=1;exitX=0.5;exitY=1;exitDx=0;exitDy=0;entryX=0.5;entryY=0;entryDx=0;entryDy=0;" parent="1" source="IQwuNEC89kdCFAj0Ew5a-13" target="IQwuNEC89kdCFAj0Ew5a-7" edge="1">
          <mxGeometry relative="1" as="geometry" />
        </mxCell>
        <mxCell id="IQwuNEC89kdCFAj0Ew5a-13" value="&lt;font color=&quot;#ff3333&quot;&gt;bcm2711-rpi.dtsi&lt;/font&gt;" style="text;html=1;align=center;verticalAlign=middle;whiteSpace=wrap;rounded=0;" parent="1" vertex="1">
          <mxGeometry x="115" y="300" width="100" height="30" as="geometry" />
        </mxCell>
        <mxCell id="IQwuNEC89kdCFAj0Ew5a-15" value="&lt;div style=&quot;color: rgb(171, 178, 191); background-color: rgb(40, 44, 52); font-family: Consolas, &amp;quot;Courier New&amp;quot;, monospace; font-size: 11px; line-height: 19px; white-space: pre;&quot;&gt;&lt;div style=&quot;font-size: 11px;&quot;&gt;&lt;span style=&quot;color: rgb(224, 108, 117); font-size: 11px;&quot;&gt;&amp;amp;hdmi0&lt;/span&gt; {&lt;/div&gt;&lt;div style=&quot;font-size: 11px;&quot;&gt;&amp;nbsp; &amp;nbsp; &amp;nbsp; &amp;nbsp; clocks = &amp;lt;&lt;span style=&quot;color: rgb(224, 108, 117); font-size: 11px;&quot;&gt;&amp;amp;firmware_clocks&lt;/span&gt; &lt;span style=&quot;color: rgb(209, 154, 102); font-size: 11px;&quot;&gt;13&lt;/span&gt;&amp;gt;, &amp;lt;&lt;span style=&quot;color: rgb(224, 108, 117); font-size: 11px;&quot;&gt;&amp;amp;firmware_clocks&lt;/span&gt; &lt;span style=&quot;color: rgb(209, 154, 102); font-size: 11px;&quot;&gt;14&lt;/span&gt;&amp;gt;, &amp;lt;&lt;span style=&quot;color: rgb(224, 108, 117); font-size: 11px;&quot;&gt;&amp;amp;dvp&lt;/span&gt; &lt;span style=&quot;color: rgb(209, 154, 102); font-size: 11px;&quot;&gt;0&lt;/span&gt;&amp;gt;, &amp;lt;&lt;span style=&quot;color: rgb(224, 108, 117); font-size: 11px;&quot;&gt;&amp;amp;clk_27MHz&lt;/span&gt;&amp;gt;;&lt;/div&gt;&lt;div style=&quot;font-size: 11px;&quot;&gt;&amp;nbsp; &amp;nbsp; &amp;nbsp; &amp;nbsp; clock-names = &lt;span style=&quot;color: rgb(152, 195, 121); font-size: 11px;&quot;&gt;&quot;hdmi&quot;&lt;/span&gt;, &lt;span style=&quot;color: rgb(152, 195, 121); font-size: 11px;&quot;&gt;&quot;bvb&quot;&lt;/span&gt;, &lt;span style=&quot;color: rgb(152, 195, 121); font-size: 11px;&quot;&gt;&quot;audio&quot;&lt;/span&gt;, &lt;span style=&quot;color: rgb(152, 195, 121); font-size: 11px;&quot;&gt;&quot;cec&quot;&lt;/span&gt;;&lt;/div&gt;&lt;div style=&quot;font-size: 11px;&quot;&gt;&amp;nbsp; &amp;nbsp; &amp;nbsp; &amp;nbsp; wifi-2.4ghz-coexistence;&lt;/div&gt;&lt;div style=&quot;font-size: 11px;&quot;&gt;};&lt;/div&gt;&lt;div style=&quot;font-size: 11px;&quot;&gt;&lt;span style=&quot;color: rgb(224, 108, 117); font-size: 11px;&quot;&gt;&amp;amp;hdmi1&lt;/span&gt; {&lt;/div&gt;&lt;div style=&quot;font-size: 11px;&quot;&gt;&amp;nbsp; &amp;nbsp; &amp;nbsp; &amp;nbsp; clocks = &amp;lt;&lt;span style=&quot;color: rgb(224, 108, 117); font-size: 11px;&quot;&gt;&amp;amp;firmware_clocks&lt;/span&gt; &lt;span style=&quot;color: rgb(209, 154, 102); font-size: 11px;&quot;&gt;13&lt;/span&gt;&amp;gt;, &amp;lt;&lt;span style=&quot;color: rgb(224, 108, 117); font-size: 11px;&quot;&gt;&amp;amp;firmware_clocks&lt;/span&gt; &lt;span style=&quot;color: rgb(209, 154, 102); font-size: 11px;&quot;&gt;14&lt;/span&gt;&amp;gt;, &amp;lt;&lt;span style=&quot;color: rgb(224, 108, 117); font-size: 11px;&quot;&gt;&amp;amp;dvp&lt;/span&gt; &lt;span style=&quot;color: rgb(209, 154, 102); font-size: 11px;&quot;&gt;1&lt;/span&gt;&amp;gt;, &amp;lt;&lt;span style=&quot;color: rgb(224, 108, 117); font-size: 11px;&quot;&gt;&amp;amp;clk_27MHz&lt;/span&gt;&amp;gt;;&lt;/div&gt;&lt;div style=&quot;font-size: 11px;&quot;&gt;&amp;nbsp; &amp;nbsp; &amp;nbsp; &amp;nbsp; clock-names = &lt;span style=&quot;color: rgb(152, 195, 121); font-size: 11px;&quot;&gt;&quot;hdmi&quot;&lt;/span&gt;, &lt;span style=&quot;color: rgb(152, 195, 121); font-size: 11px;&quot;&gt;&quot;bvb&quot;&lt;/span&gt;, &lt;span style=&quot;color: rgb(152, 195, 121); font-size: 11px;&quot;&gt;&quot;audio&quot;&lt;/span&gt;, &lt;span style=&quot;color: rgb(152, 195, 121); font-size: 11px;&quot;&gt;&quot;cec&quot;&lt;/span&gt;;&lt;/div&gt;&lt;div style=&quot;font-size: 11px;&quot;&gt;&amp;nbsp; &amp;nbsp; &amp;nbsp; &amp;nbsp; wifi-2.4ghz-coexistence;&lt;/div&gt;&lt;div style=&quot;font-size: 11px;&quot;&gt;};&lt;/div&gt;&lt;/div&gt;" style="text;whiteSpace=wrap;html=1;labelBackgroundColor=#CC99FF;fontSize=11;" parent="1" vertex="1">
          <mxGeometry x="-2.5" y="1340" width="530" height="220" as="geometry" />
        </mxCell>
        <mxCell id="IQwuNEC89kdCFAj0Ew5a-17" style="edgeStyle=orthogonalEdgeStyle;rounded=0;orthogonalLoop=1;jettySize=auto;html=1;exitX=0.5;exitY=1;exitDx=0;exitDy=0;entryX=0.5;entryY=0;entryDx=0;entryDy=0;" parent="1" source="IQwuNEC89kdCFAj0Ew5a-16" target="IQwuNEC89kdCFAj0Ew5a-13" edge="1">
          <mxGeometry relative="1" as="geometry" />
        </mxCell>
        <mxCell id="IQwuNEC89kdCFAj0Ew5a-16" value="bcm2835-rpi.dtsi" style="text;html=1;align=center;verticalAlign=middle;whiteSpace=wrap;rounded=0;fontColor=#FF3333;" parent="1" vertex="1">
          <mxGeometry x="115" y="240" width="100" height="30" as="geometry" />
        </mxCell>
        <mxCell id="IQwuNEC89kdCFAj0Ew5a-18" value="&lt;font color=&quot;#1a1a1a&quot;&gt;bcm2711.dtsi:&lt;/font&gt;" style="text;html=1;align=center;verticalAlign=middle;whiteSpace=wrap;rounded=0;" parent="1" vertex="1">
          <mxGeometry x="-290" y="780" width="100" height="30" as="geometry" />
        </mxCell>
        <mxCell id="IQwuNEC89kdCFAj0Ew5a-19" value="&lt;font color=&quot;#1a1a1a&quot;&gt;bcm2711-rpi.dtsi&lt;/font&gt;" style="text;html=1;align=center;verticalAlign=middle;whiteSpace=wrap;rounded=0;" parent="1" vertex="1">
          <mxGeometry x="-125" y="1405" width="100" height="30" as="geometry" />
        </mxCell>
        <mxCell id="IQwuNEC89kdCFAj0Ew5a-20" value="&lt;div style=&quot;color: rgb(171, 178, 191); background-color: rgb(40, 44, 52); font-family: Consolas, &amp;quot;Courier New&amp;quot;, monospace; font-weight: normal; font-size: 11px; line-height: 19px; white-space: pre;&quot;&gt;&lt;div style=&quot;font-size: 11px;&quot;&gt;&lt;span style=&quot;color: rgb(224, 108, 117); font-size: 11px;&quot;&gt;&amp;amp;dsi0&lt;/span&gt;&lt;span style=&quot;color: rgb(171, 178, 191); font-size: 11px;&quot;&gt; {&lt;/span&gt;&lt;/div&gt;&lt;div style=&quot;font-size: 11px;&quot;&gt;&lt;span style=&quot;color: rgb(171, 178, 191); font-size: 11px;&quot;&gt;&amp;nbsp; &amp;nbsp; &amp;nbsp; &amp;nbsp; power-domains = &amp;lt;&lt;/span&gt;&lt;span style=&quot;color: rgb(224, 108, 117); font-size: 11px;&quot;&gt;&amp;amp;power&lt;/span&gt;&lt;span style=&quot;color: rgb(171, 178, 191); font-size: 11px;&quot;&gt; &lt;/span&gt;&lt;span style=&quot;color: rgb(209, 154, 102); font-size: 11px;&quot;&gt;RPI_POWER_DOMAIN_DSI0&lt;/span&gt;&lt;span style=&quot;color: rgb(171, 178, 191); font-size: 11px;&quot;&gt;&amp;gt;;&lt;/span&gt;&lt;/div&gt;&lt;div style=&quot;font-size: 11px;&quot;&gt;&lt;span style=&quot;color: rgb(171, 178, 191); font-size: 11px;&quot;&gt;};&lt;/span&gt;&lt;/div&gt;&lt;div style=&quot;font-size: 11px;&quot;&gt;&lt;span style=&quot;color: rgb(224, 108, 117); font-size: 11px;&quot;&gt;&amp;amp;dsi1&lt;/span&gt;&lt;span style=&quot;color: rgb(171, 178, 191); font-size: 11px;&quot;&gt; {&lt;/span&gt;&lt;/div&gt;&lt;div style=&quot;font-size: 11px;&quot;&gt;&lt;span style=&quot;color: rgb(171, 178, 191); font-size: 11px;&quot;&gt;&amp;nbsp; &amp;nbsp; &amp;nbsp; &amp;nbsp; power-domains = &amp;lt;&lt;/span&gt;&lt;span style=&quot;color: rgb(224, 108, 117); font-size: 11px;&quot;&gt;&amp;amp;power&lt;/span&gt;&lt;span style=&quot;color: rgb(171, 178, 191); font-size: 11px;&quot;&gt; &lt;/span&gt;&lt;span style=&quot;color: rgb(209, 154, 102); font-size: 11px;&quot;&gt;RPI_POWER_DOMAIN_DSI1&lt;/span&gt;&lt;span style=&quot;color: rgb(171, 178, 191); font-size: 11px;&quot;&gt;&amp;gt;;&lt;/span&gt;&lt;/div&gt;&lt;div style=&quot;font-size: 11px;&quot;&gt;&lt;span style=&quot;color: rgb(171, 178, 191); font-size: 11px;&quot;&gt;};&lt;/span&gt;&lt;/div&gt;&lt;/div&gt;" style="text;whiteSpace=wrap;html=1;fontSize=11;" parent="1" vertex="1">
          <mxGeometry x="-2.5" y="1570" width="350" height="140" as="geometry" />
        </mxCell>
        <mxCell id="IQwuNEC89kdCFAj0Ew5a-21" value="bcm2835-rpi.dtsi" style="text;html=1;align=center;verticalAlign=middle;whiteSpace=wrap;rounded=0;fontColor=#1A1A1A;" parent="1" vertex="1">
          <mxGeometry x="-122.5" y="1610" width="100" height="30" as="geometry" />
        </mxCell>
        <mxCell id="IQwuNEC89kdCFAj0Ew5a-22" value="&lt;font color=&quot;#1a1a1a&quot;&gt;bcm2711-rpi-4-b.dts&lt;/font&gt;" style="text;html=1;align=center;verticalAlign=middle;whiteSpace=wrap;rounded=0;" parent="1" vertex="1">
          <mxGeometry x="-137.5" y="1800" width="125" height="30" as="geometry" />
        </mxCell>
        <mxCell id="IQwuNEC89kdCFAj0Ew5a-23" value="&lt;div style=&quot;color: rgb(171, 178, 191); background-color: rgb(40, 44, 52); font-family: Consolas, &amp;quot;Courier New&amp;quot;, monospace; font-size: 14px; line-height: 19px; white-space: pre;&quot;&gt;&lt;div&gt;&lt;span style=&quot;color: #e06c75;&quot;&gt;&amp;amp;hdmi0&lt;/span&gt; {&lt;/div&gt;&lt;div&gt;&amp;nbsp; &amp;nbsp; &amp;nbsp; &amp;nbsp; status = &lt;span style=&quot;color: #98c379;&quot;&gt;&quot;okay&quot;&lt;/span&gt;;&lt;/div&gt;&lt;div&gt;};&lt;/div&gt;&lt;div&gt;&lt;span style=&quot;color: #e06c75;&quot;&gt;&amp;amp;hdmi1&lt;/span&gt; {&lt;/div&gt;&lt;div&gt;&amp;nbsp; &amp;nbsp; &amp;nbsp; &amp;nbsp; status = &lt;span style=&quot;color: #98c379;&quot;&gt;&quot;okay&quot;&lt;/span&gt;;&lt;/div&gt;&lt;div&gt;};&lt;/div&gt;&lt;div&gt;&lt;div style=&quot;line-height: 19px;&quot;&gt;&lt;div&gt;&lt;span style=&quot;color: #e06c75;&quot;&gt;&amp;amp;vc4&lt;/span&gt; {&lt;/div&gt;&lt;div&gt;&amp;nbsp; &amp;nbsp; &amp;nbsp; &amp;nbsp; status = &lt;span style=&quot;color: #98c379;&quot;&gt;&quot;okay&quot;&lt;/span&gt;;&lt;/div&gt;&lt;div&gt;};&lt;/div&gt;&lt;/div&gt;&lt;/div&gt;&lt;/div&gt;" style="text;whiteSpace=wrap;html=1;labelBackgroundColor=#CC99FF;" parent="1" vertex="1">
          <mxGeometry x="7.5" y="1730" width="215" height="190" as="geometry" />
        </mxCell>
        <mxCell id="IQwuNEC89kdCFAj0Ew5a-26" value="&lt;div style=&quot;color: rgb(171, 178, 191); background-color: rgb(40, 44, 52); font-family: Consolas, &amp;quot;Courier New&amp;quot;, monospace; font-weight: normal; font-size: 11px; line-height: 19px; white-space: pre;&quot;&gt;&lt;div style=&quot;font-size: 11px;&quot;&gt;&lt;span style=&quot;color: rgb(171, 178, 191); font-size: 11px;&quot;&gt;&amp;nbsp; &amp;nbsp; &amp;nbsp; &amp;nbsp; &amp;nbsp; &amp;nbsp; &amp;nbsp; &amp;nbsp; &lt;/span&gt;&lt;span style=&quot;color: rgb(229, 192, 123); font-size: 11px;&quot;&gt;pixelvalve0&lt;/span&gt;&lt;span style=&quot;color: rgb(171, 178, 191); font-size: 11px;&quot;&gt;: &lt;/span&gt;&lt;span style=&quot;color: rgb(97, 175, 239); font-size: 11px;&quot;&gt;pixelvalve@7e206000&lt;/span&gt;&lt;span style=&quot;color: rgb(171, 178, 191); font-size: 11px;&quot;&gt; {&lt;/span&gt;&lt;/div&gt;&lt;div style=&quot;font-size: 11px;&quot;&gt;&lt;span style=&quot;color: rgb(171, 178, 191); font-size: 11px;&quot;&gt;&amp;nbsp; &amp;nbsp; &amp;nbsp; &amp;nbsp; &amp;nbsp; &amp;nbsp; &amp;nbsp; &amp;nbsp; &amp;nbsp; &amp;nbsp; &amp;nbsp; &amp;nbsp; compatible = &lt;/span&gt;&lt;span style=&quot;color: rgb(152, 195, 121); font-size: 11px;&quot;&gt;&quot;brcm,bcm2711-pixelvalve0&quot;&lt;/span&gt;&lt;span style=&quot;color: rgb(171, 178, 191); font-size: 11px;&quot;&gt;;&lt;/span&gt;&lt;/div&gt;&lt;div style=&quot;font-size: 11px;&quot;&gt;&lt;span style=&quot;color: rgb(171, 178, 191); font-size: 11px;&quot;&gt;&amp;nbsp; &amp;nbsp; &amp;nbsp; &amp;nbsp; &amp;nbsp; &amp;nbsp; &amp;nbsp; &amp;nbsp; };&lt;/span&gt;&lt;/div&gt;&lt;/div&gt;" style="text;whiteSpace=wrap;html=1;fontSize=11;" parent="1" vertex="1">
          <mxGeometry x="-10" y="890" width="400" height="70" as="geometry" />
        </mxCell>
        <mxCell id="IQwuNEC89kdCFAj0Ew5a-27" value="vc4_crtc.c:" style="text;html=1;align=center;verticalAlign=middle;resizable=0;points=[];autosize=1;strokeColor=none;fillColor=none;" parent="1" vertex="1">
          <mxGeometry x="-190" y="910" width="80" height="30" as="geometry" />
        </mxCell>
        <mxCell id="IQwuNEC89kdCFAj0Ew5a-28" value="&lt;div style=&quot;color: rgb(171, 178, 191); background-color: rgb(40, 44, 52); font-family: Consolas, &amp;quot;Courier New&amp;quot;, monospace; font-weight: normal; font-size: 11px; line-height: 19px; white-space: pre;&quot;&gt;&lt;div style=&quot;font-size: 11px;&quot;&gt;&lt;div style=&quot;font-size: 11px; line-height: 19px;&quot;&gt;&lt;div style=&quot;font-size: 11px;&quot;&gt;&amp;nbsp; &amp;nbsp; &amp;nbsp; &amp;nbsp; &amp;nbsp; &amp;nbsp; &amp;nbsp; &amp;nbsp; &lt;span style=&quot;color: rgb(229, 192, 123); font-size: 11px;&quot;&gt;pixelvalve1&lt;/span&gt;: &lt;span style=&quot;color: rgb(97, 175, 239); font-size: 11px;&quot;&gt;pixelvalve@7e207000&lt;/span&gt; {&lt;/div&gt;&lt;div style=&quot;font-size: 11px;&quot;&gt;&amp;nbsp; &amp;nbsp; &amp;nbsp; &amp;nbsp; &amp;nbsp; &amp;nbsp; &amp;nbsp; &amp;nbsp; &amp;nbsp; &amp;nbsp; &amp;nbsp; &amp;nbsp; compatible = &lt;span style=&quot;color: rgb(152, 195, 121); font-size: 11px;&quot;&gt;&quot;brcm,bcm2711-pixelvalve1&quot;&lt;/span&gt;;&lt;/div&gt;&lt;div style=&quot;font-size: 11px;&quot;&gt;&amp;nbsp; &amp;nbsp; &amp;nbsp; &amp;nbsp; &amp;nbsp; &amp;nbsp; &amp;nbsp; &amp;nbsp; };&lt;/div&gt;&lt;/div&gt;&lt;/div&gt;&lt;/div&gt;" style="text;whiteSpace=wrap;html=1;fontSize=11;" parent="1" vertex="1">
          <mxGeometry x="-10" y="960" width="390" height="70" as="geometry" />
        </mxCell>
        <mxCell id="IQwuNEC89kdCFAj0Ew5a-29" value="&lt;div style=&quot;color: rgb(171, 178, 191); background-color: rgb(40, 44, 52); font-family: Consolas, &amp;quot;Courier New&amp;quot;, monospace; font-weight: normal; font-size: 11px; line-height: 19px; white-space: pre;&quot;&gt;&lt;div style=&quot;font-size: 11px;&quot;&gt;&lt;span style=&quot;color: rgb(171, 178, 191); font-size: 11px;&quot;&gt;&amp;nbsp; &amp;nbsp; &amp;nbsp; &amp;nbsp; &amp;nbsp; &amp;nbsp; &amp;nbsp; &amp;nbsp; &lt;/span&gt;&lt;span style=&quot;color: rgb(229, 192, 123); font-size: 11px;&quot;&gt;pixelvalve2&lt;/span&gt;&lt;span style=&quot;color: rgb(171, 178, 191); font-size: 11px;&quot;&gt;: &lt;/span&gt;&lt;span style=&quot;color: rgb(97, 175, 239); font-size: 11px;&quot;&gt;pixelvalve@7e20a000&lt;/span&gt;&lt;span style=&quot;color: rgb(171, 178, 191); font-size: 11px;&quot;&gt; {&lt;/span&gt;&lt;/div&gt;&lt;div style=&quot;font-size: 11px;&quot;&gt;&lt;span style=&quot;color: rgb(171, 178, 191); font-size: 11px;&quot;&gt;&amp;nbsp; &amp;nbsp; &amp;nbsp; &amp;nbsp; &amp;nbsp; &amp;nbsp; &amp;nbsp; &amp;nbsp; &amp;nbsp; &amp;nbsp; &amp;nbsp; &amp;nbsp; compatible = &lt;/span&gt;&lt;span style=&quot;color: rgb(152, 195, 121); font-size: 11px;&quot;&gt;&quot;brcm,bcm2711-pixelvalve2&quot;&lt;/span&gt;&lt;span style=&quot;color: rgb(171, 178, 191); font-size: 11px;&quot;&gt;;&lt;/span&gt;&lt;/div&gt;&lt;div style=&quot;font-size: 11px;&quot;&gt;&lt;span style=&quot;color: rgb(171, 178, 191); font-size: 11px;&quot;&gt;&amp;nbsp; &amp;nbsp; &amp;nbsp; &amp;nbsp; &amp;nbsp; &amp;nbsp; &amp;nbsp; &amp;nbsp; };&lt;/span&gt;&lt;/div&gt;&lt;/div&gt;" style="text;whiteSpace=wrap;html=1;fontSize=11;" parent="1" vertex="1">
          <mxGeometry x="-12.5" y="1030" width="392.5" height="70" as="geometry" />
        </mxCell>
        <mxCell id="IQwuNEC89kdCFAj0Ew5a-30" value="crtc0" style="text;html=1;align=center;verticalAlign=middle;resizable=0;points=[];autosize=1;strokeColor=none;fillColor=none;" parent="1" vertex="1">
          <mxGeometry x="-97.5" y="910" width="50" height="30" as="geometry" />
        </mxCell>
        <mxCell id="IQwuNEC89kdCFAj0Ew5a-31" value="crtc1" style="text;html=1;align=center;verticalAlign=middle;resizable=0;points=[];autosize=1;strokeColor=none;fillColor=none;" parent="1" vertex="1">
          <mxGeometry x="-97.5" y="980" width="50" height="30" as="geometry" />
        </mxCell>
        <mxCell id="IQwuNEC89kdCFAj0Ew5a-32" value="crtc2" style="text;html=1;align=center;verticalAlign=middle;resizable=0;points=[];autosize=1;strokeColor=none;fillColor=none;" parent="1" vertex="1">
          <mxGeometry x="-97.5" y="1050" width="50" height="30" as="geometry" />
        </mxCell>
        <mxCell id="IQwuNEC89kdCFAj0Ew5a-33" value="&lt;font color=&quot;#1a1a1a&quot;&gt;bcm283x.dtsi&lt;/font&gt;" style="text;html=1;align=center;verticalAlign=middle;whiteSpace=wrap;rounded=0;" parent="1" vertex="1">
          <mxGeometry x="-300" y="550" width="100" height="30" as="geometry" />
        </mxCell>
        <mxCell id="IQwuNEC89kdCFAj0Ew5a-34" value="&lt;div style=&quot;color: rgb(171, 178, 191); background-color: rgb(40, 44, 52); font-family: Consolas, &amp;quot;Courier New&amp;quot;, monospace; font-weight: normal; font-size: 11px; line-height: 19px; white-space: pre;&quot;&gt;&lt;div style=&quot;font-size: 11px;&quot;&gt;&lt;span style=&quot;color: rgb(171, 178, 191); font-size: 11px;&quot;&gt;&amp;nbsp; &amp;nbsp; &amp;nbsp; &amp;nbsp; &amp;nbsp; &amp;nbsp; &amp;nbsp; &amp;nbsp; &lt;/span&gt;&lt;span style=&quot;color: rgb(229, 192, 123); font-size: 11px;&quot;&gt;dpi&lt;/span&gt;&lt;span style=&quot;color: rgb(171, 178, 191); font-size: 11px;&quot;&gt;: &lt;/span&gt;&lt;span style=&quot;color: rgb(97, 175, 239); font-size: 11px;&quot;&gt;dpi@7e208000&lt;/span&gt;&lt;span style=&quot;color: rgb(171, 178, 191); font-size: 11px;&quot;&gt; {&lt;/span&gt;&lt;/div&gt;&lt;div style=&quot;font-size: 11px;&quot;&gt;&lt;span style=&quot;color: rgb(171, 178, 191); font-size: 11px;&quot;&gt;&amp;nbsp; &amp;nbsp; &amp;nbsp; &amp;nbsp; &amp;nbsp; &amp;nbsp; &amp;nbsp; &amp;nbsp; &amp;nbsp; &amp;nbsp; &amp;nbsp; &amp;nbsp; compatible = &lt;/span&gt;&lt;span style=&quot;color: rgb(152, 195, 121); font-size: 11px;&quot;&gt;&quot;brcm,bcm2835-dpi&quot;&lt;/span&gt;&lt;span style=&quot;color: rgb(171, 178, 191); font-size: 11px;&quot;&gt;;&lt;/span&gt;&lt;/div&gt;&lt;div style=&quot;font-size: 11px;&quot;&gt;&lt;span style=&quot;color: rgb(171, 178, 191); font-size: 11px;&quot;&gt;&amp;nbsp; &amp;nbsp; &amp;nbsp; &amp;nbsp; &amp;nbsp; &amp;nbsp; &amp;nbsp; &amp;nbsp; };&lt;/span&gt;&lt;/div&gt;&lt;/div&gt;" style="text;whiteSpace=wrap;html=1;fontSize=11;" parent="1" vertex="1">
          <mxGeometry x="-10" y="540" width="350" height="70" as="geometry" />
        </mxCell>
        <mxCell id="IQwuNEC89kdCFAj0Ew5a-35" value="&lt;div style=&quot;color: rgb(171, 178, 191); background-color: rgb(40, 44, 52); font-family: Consolas, &amp;quot;Courier New&amp;quot;, monospace; font-weight: normal; font-size: 11px; line-height: 19px; white-space: pre;&quot;&gt;&lt;div style=&quot;font-size: 11px;&quot;&gt;&lt;span style=&quot;color: rgb(171, 178, 191); font-size: 11px;&quot;&gt;&amp;nbsp; &amp;nbsp; &amp;nbsp; &amp;nbsp; &amp;nbsp; &amp;nbsp; &amp;nbsp; &amp;nbsp; &lt;/span&gt;&lt;span style=&quot;color: rgb(229, 192, 123); font-size: 11px;&quot;&gt;dsi0&lt;/span&gt;&lt;span style=&quot;color: rgb(171, 178, 191); font-size: 11px;&quot;&gt;: &lt;/span&gt;&lt;span style=&quot;color: rgb(97, 175, 239); font-size: 11px;&quot;&gt;dsi@7e209000&lt;/span&gt;&lt;span style=&quot;color: rgb(171, 178, 191); font-size: 11px;&quot;&gt; {&lt;/span&gt;&lt;/div&gt;&lt;div style=&quot;font-size: 11px;&quot;&gt;&lt;span style=&quot;color: rgb(171, 178, 191); font-size: 11px;&quot;&gt;&amp;nbsp; &amp;nbsp; &amp;nbsp; &amp;nbsp; &amp;nbsp; &amp;nbsp; &amp;nbsp; &amp;nbsp; &amp;nbsp; &amp;nbsp; &amp;nbsp; &amp;nbsp; compatible = &lt;/span&gt;&lt;span style=&quot;color: rgb(152, 195, 121); font-size: 11px;&quot;&gt;&quot;brcm,bcm2835-dsi0&quot;&lt;/span&gt;&lt;span style=&quot;color: rgb(171, 178, 191); font-size: 11px;&quot;&gt;;&lt;/span&gt;&lt;/div&gt;&lt;div style=&quot;font-size: 11px;&quot;&gt;&lt;span style=&quot;color: rgb(171, 178, 191); font-size: 11px;&quot;&gt;&amp;nbsp; &amp;nbsp; &amp;nbsp; &amp;nbsp; &amp;nbsp; &amp;nbsp; &amp;nbsp; &amp;nbsp; };&lt;/span&gt;&lt;/div&gt;&lt;/div&gt;" style="text;whiteSpace=wrap;html=1;fontSize=11;" parent="1" vertex="1">
          <mxGeometry x="-12.5" y="600" width="360" height="70" as="geometry" />
        </mxCell>
        <mxCell id="IQwuNEC89kdCFAj0Ew5a-36" value="&lt;div style=&quot;color: rgb(171, 178, 191); background-color: rgb(40, 44, 52); font-family: Consolas, &amp;quot;Courier New&amp;quot;, monospace; font-weight: normal; font-size: 11px; line-height: 19px; white-space: pre;&quot;&gt;&lt;div style=&quot;font-size: 11px;&quot;&gt;&lt;span style=&quot;color: rgb(171, 178, 191); font-size: 11px;&quot;&gt;&amp;nbsp; &amp;nbsp; &amp;nbsp; &amp;nbsp; &amp;nbsp; &amp;nbsp; &amp;nbsp; &amp;nbsp; &lt;/span&gt;&lt;span style=&quot;font-size: 11px; color: rgb(229, 192, 123);&quot;&gt;dsi1&lt;/span&gt;&lt;span style=&quot;font-size: 11px;&quot;&gt;: &lt;/span&gt;&lt;span style=&quot;font-size: 11px; color: rgb(97, 175, 239);&quot;&gt;dsi@7e700000&lt;/span&gt; {&lt;br style=&quot;font-size: 11px;&quot;&gt;&lt;/div&gt;&lt;div style=&quot;font-size: 11px;&quot;&gt;&lt;span style=&quot;color: rgb(171, 178, 191); font-size: 11px;&quot;&gt;&amp;nbsp; &amp;nbsp; &amp;nbsp; &amp;nbsp; &amp;nbsp; &amp;nbsp; &amp;nbsp; &amp;nbsp; &amp;nbsp; &amp;nbsp; &amp;nbsp; &amp;nbsp; compatible = &lt;/span&gt;&lt;span style=&quot;color: rgb(152, 195, 121); font-size: 11px;&quot;&gt;&quot;brcm,bcm2835-dsi1&quot;&lt;/span&gt;&lt;span style=&quot;color: rgb(171, 178, 191); font-size: 11px;&quot;&gt;;&lt;/span&gt;&lt;/div&gt;&lt;div style=&quot;font-size: 11px;&quot;&gt;&lt;span style=&quot;color: rgb(171, 178, 191); font-size: 11px;&quot;&gt;&amp;nbsp; &amp;nbsp; &amp;nbsp; &amp;nbsp; &amp;nbsp; &amp;nbsp; &amp;nbsp; &amp;nbsp; };&lt;/span&gt;&lt;/div&gt;&lt;/div&gt;" style="text;whiteSpace=wrap;html=1;fontSize=11;" parent="1" vertex="1">
          <mxGeometry x="-12.5" y="660" width="360" height="70" as="geometry" />
        </mxCell>
        <mxCell id="IQwuNEC89kdCFAj0Ew5a-37" value="vc4_dpi.c:" style="text;html=1;align=center;verticalAlign=middle;resizable=0;points=[];autosize=1;strokeColor=none;fillColor=none;" parent="1" vertex="1">
          <mxGeometry x="-170" y="560" width="80" height="30" as="geometry" />
        </mxCell>
        <mxCell id="IQwuNEC89kdCFAj0Ew5a-38" value="vc4_dsi.c:" style="text;html=1;align=center;verticalAlign=middle;resizable=0;points=[];autosize=1;strokeColor=none;fillColor=none;" parent="1" vertex="1">
          <mxGeometry x="-170" y="620" width="80" height="30" as="geometry" />
        </mxCell>
        <mxCell id="IQwuNEC89kdCFAj0Ew5a-39" value="&lt;div style=&quot;color: rgb(171, 178, 191); background-color: rgb(40, 44, 52); font-family: Consolas, &amp;quot;Courier New&amp;quot;, monospace; font-weight: normal; font-size: 11px; line-height: 19px; white-space: pre;&quot;&gt;&lt;div style=&quot;font-size: 11px;&quot;&gt;&lt;span style=&quot;color: rgb(171, 178, 191); font-size: 11px;&quot;&gt;&amp;nbsp; &amp;nbsp; &amp;nbsp; &amp;nbsp; &amp;nbsp; &amp;nbsp; &amp;nbsp; &amp;nbsp; &lt;/span&gt;&lt;span style=&quot;color: rgb(229, 192, 123); font-size: 11px;&quot;&gt;hdmi0&lt;/span&gt;&lt;span style=&quot;color: rgb(171, 178, 191); font-size: 11px;&quot;&gt;: &lt;/span&gt;&lt;span style=&quot;color: rgb(97, 175, 239); font-size: 11px;&quot;&gt;hdmi@7ef00700&lt;/span&gt;&lt;span style=&quot;color: rgb(171, 178, 191); font-size: 11px;&quot;&gt; {&lt;/span&gt;&lt;/div&gt;&lt;div style=&quot;font-size: 11px;&quot;&gt;&lt;span style=&quot;color: rgb(171, 178, 191); font-size: 11px;&quot;&gt;&amp;nbsp; &amp;nbsp; &amp;nbsp; &amp;nbsp; &amp;nbsp; &amp;nbsp; &amp;nbsp; &amp;nbsp; &amp;nbsp; &amp;nbsp; &amp;nbsp; &amp;nbsp; compatible = &lt;/span&gt;&lt;span style=&quot;color: rgb(152, 195, 121); font-size: 11px;&quot;&gt;&quot;brcm,bcm2711-hdmi0&quot;&lt;/span&gt;&lt;span style=&quot;color: rgb(171, 178, 191); font-size: 11px;&quot;&gt;;&lt;/span&gt;&lt;/div&gt;&lt;div style=&quot;font-size: 11px;&quot;&gt;&lt;span style=&quot;color: rgb(171, 178, 191); font-size: 11px;&quot;&gt;&amp;nbsp; &amp;nbsp; &amp;nbsp; &amp;nbsp; &amp;nbsp; &amp;nbsp; &amp;nbsp; &amp;nbsp; &amp;nbsp; &amp;nbsp; &amp;nbsp; &amp;nbsp; ddc = &amp;lt;&lt;/span&gt;&lt;span style=&quot;color: rgb(224, 108, 117); font-size: 11px;&quot;&gt;&amp;amp;ddc0&lt;/span&gt;&lt;span style=&quot;color: rgb(171, 178, 191); font-size: 11px;&quot;&gt;&amp;gt;;&lt;/span&gt;&lt;/div&gt;&lt;div style=&quot;font-size: 11px;&quot;&gt;&lt;span style=&quot;color: rgb(171, 178, 191); font-size: 11px;&quot;&gt;&amp;nbsp; &amp;nbsp; &amp;nbsp; &amp;nbsp; &amp;nbsp; &amp;nbsp; &amp;nbsp; &amp;nbsp; };&lt;/span&gt;&lt;/div&gt;&lt;/div&gt;" style="text;whiteSpace=wrap;html=1;fontSize=11;" parent="1" vertex="1">
          <mxGeometry x="-10" y="1160" width="360" height="80" as="geometry" />
        </mxCell>
        <mxCell id="IQwuNEC89kdCFAj0Ew5a-40" value="&lt;div style=&quot;color: rgb(171, 178, 191); background-color: rgb(40, 44, 52); font-family: Consolas, &amp;quot;Courier New&amp;quot;, monospace; font-weight: normal; font-size: 11px; line-height: 19px; white-space: pre;&quot;&gt;&lt;div style=&quot;font-size: 11px;&quot;&gt;&lt;span style=&quot;color: rgb(171, 178, 191); font-size: 11px;&quot;&gt;&amp;nbsp; &amp;nbsp; &amp;nbsp; &amp;nbsp; &amp;nbsp; &amp;nbsp; &amp;nbsp; &amp;nbsp; &lt;/span&gt;&lt;span style=&quot;font-size: 11px; color: rgb(229, 192, 123);&quot;&gt;hdmi1&lt;/span&gt;&lt;span style=&quot;font-size: 11px;&quot;&gt;: &lt;/span&gt;&lt;span style=&quot;font-size: 11px; color: rgb(97, 175, 239);&quot;&gt;hdmi@7ef05700&lt;/span&gt; {&lt;br style=&quot;font-size: 11px;&quot;&gt;&lt;/div&gt;&lt;div style=&quot;font-size: 11px;&quot;&gt;&lt;span style=&quot;color: rgb(171, 178, 191); font-size: 11px;&quot;&gt;&amp;nbsp; &amp;nbsp; &amp;nbsp; &amp;nbsp; &amp;nbsp; &amp;nbsp; &amp;nbsp; &amp;nbsp; &amp;nbsp; &amp;nbsp; &amp;nbsp; &amp;nbsp; compatible = &lt;/span&gt;&lt;span style=&quot;color: rgb(152, 195, 121); font-size: 11px;&quot;&gt;&quot;brcm,bcm2711-hdmi1&quot;&lt;/span&gt;&lt;span style=&quot;color: rgb(171, 178, 191); font-size: 11px;&quot;&gt;;&lt;/span&gt;&lt;/div&gt;&lt;div style=&quot;font-size: 11px;&quot;&gt;&lt;span style=&quot;color: rgb(171, 178, 191); font-size: 11px;&quot;&gt;&amp;nbsp; &amp;nbsp; &amp;nbsp; &amp;nbsp; &amp;nbsp; &amp;nbsp; &amp;nbsp; &amp;nbsp; &amp;nbsp; &amp;nbsp; &amp;nbsp; &amp;nbsp; ddc = &amp;lt;&lt;/span&gt;&lt;span style=&quot;color: rgb(224, 108, 117); font-size: 11px;&quot;&gt;&amp;amp;ddc1&lt;/span&gt;&lt;span style=&quot;color: rgb(171, 178, 191); font-size: 11px;&quot;&gt;&amp;gt;;&lt;/span&gt;&lt;/div&gt;&lt;div style=&quot;font-size: 11px;&quot;&gt;&lt;span style=&quot;color: rgb(171, 178, 191); font-size: 11px;&quot;&gt;&amp;nbsp; &amp;nbsp; &amp;nbsp; &amp;nbsp; &amp;nbsp; &amp;nbsp; &amp;nbsp; &amp;nbsp; };&lt;/span&gt;&lt;/div&gt;&lt;/div&gt;" style="text;whiteSpace=wrap;html=1;fontSize=11;" parent="1" vertex="1">
          <mxGeometry x="-10" y="1251" width="360" height="80" as="geometry" />
        </mxCell>
        <mxCell id="IQwuNEC89kdCFAj0Ew5a-41" value="vc4_hdmi.c:" style="text;html=1;align=center;verticalAlign=middle;resizable=0;points=[];autosize=1;strokeColor=none;fillColor=none;" parent="1" vertex="1">
          <mxGeometry x="-195" y="1185" width="90" height="30" as="geometry" />
        </mxCell>
        <mxCell id="IQwuNEC89kdCFAj0Ew5a-42" value="hdmi0" style="text;html=1;align=center;verticalAlign=middle;resizable=0;points=[];autosize=1;strokeColor=none;fillColor=none;" parent="1" vertex="1">
          <mxGeometry x="-102.5" y="1185" width="60" height="30" as="geometry" />
        </mxCell>
        <mxCell id="IQwuNEC89kdCFAj0Ew5a-43" value="hdmi1" style="text;html=1;align=center;verticalAlign=middle;resizable=0;points=[];autosize=1;strokeColor=none;fillColor=none;" parent="1" vertex="1">
          <mxGeometry x="-102.5" y="1276" width="60" height="30" as="geometry" />
        </mxCell>
        <mxCell id="tBX07c4tivHEvZJBObFh-1" value="vc4_drv.c:" style="text;html=1;align=center;verticalAlign=middle;resizable=0;points=[];autosize=1;strokeColor=none;fillColor=none;" vertex="1" parent="1">
          <mxGeometry x="-190" y="820" width="80" height="30" as="geometry" />
        </mxCell>
        <mxCell id="tBX07c4tivHEvZJBObFh-2" value="crtc3, crtc4" style="text;html=1;align=center;verticalAlign=middle;whiteSpace=wrap;rounded=0;" vertex="1" parent="1">
          <mxGeometry x="-110" y="1110" width="82" height="30" as="geometry" />
        </mxCell>
      </root>
    </mxGraphModel>
  </diagram>
</mxfile>
